<svg width="540" height="449" viewBox="0 0 540 449" fill="none" xmlns="http://www.w3.org/2000/svg">
<path d="M0.486084 448.211C0.608084 425.893 0.387085 403.565 0.721085 381.25C18.3181 381.185 43.5951 378.034 57.6741 390.63C64.1531 396.427 67.2741 404.528 67.6861 413.074C68.1631 422.957 65.1451 431.198 58.4711 438.476C47.4011 448.218 33.8381 448.307 19.9011 448.23C13.4291 448.185 6.95808 448.179 0.486084 448.211ZM14.3761 392.14C14.3491 407.21 14.5031 422.309 14.0511 437.372C26.2671 437.465 37.5061 438.812 47.6091 430.743C52.1581 425.912 54.1771 420.846 53.9631 414.123C53.7761 408.265 51.8801 402.531 47.4751 398.498C38.8621 390.61 25.1761 392.09 14.3761 392.14Z" fill="white"/>
<path d="M69.158 448.098C80.218 426.162 89.499 403.394 100.412 381.393L114.103 381.333C123.912 403.709 134.715 425.822 143.996 448.4C139.332 448.363 134.667 448.381 130.002 448.456L124.525 435.309L112.038 435.144L89.235 435.009L83.535 447.913C78.749 448.068 73.946 448.044 69.158 448.098ZM106.473 394.757C102.261 404.715 97.529 414.425 93.517 424.471L107.375 424.508L120.128 424.451C117.625 419.066 109.136 397.805 106.473 394.757Z" fill="white"/>
<path d="M135.577 392.31L135.651 381.441C154.506 381.395 173.361 381.465 192.215 381.652L192.201 392.392L170.51 392.427L170.498 427.587L170.435 448.616L157.336 448.653L157.208 392.343L135.577 392.31Z" fill="white"/>
<path d="M189.12 448.548C193.992 436.366 199.867 424.545 205.453 412.678C210.267 402.317 214.976 391.906 219.577 381.449L233.635 381.31C236.543 390.208 240.947 398.858 244.824 407.375C251.17 421.081 257.316 434.879 263.26 448.763L248.971 448.71C247.089 443.493 244.846 438.414 242.259 433.508L233.876 433.382L209.554 433.343C207.14 438.405 204.874 443.548 202.568 448.661C198.085 448.665 193.602 448.627 189.12 448.548ZM225.793 394.624C221.836 404.193 217.801 413.73 213.687 423.233L225.914 423.32L238.066 423.306C236.269 418.699 228.492 396.973 225.793 394.624Z" fill="white"/>
<path d="M271.566 448.763L272.024 381.404L283.432 381.355C291.051 396.148 300.363 410.304 308.796 424.647C317.675 410.499 325.905 395.891 334.497 381.562L345.505 381.722L345.212 448.966L332.515 448.986L332.641 423.637C332.602 416.976 332.975 410.32 333.757 403.705C326.672 416.129 318.986 428.362 311.462 440.53L305.383 440.292C297.951 428.526 291.026 416.419 284.032 404.387C284.155 419.204 284.166 434.021 284.066 448.838L271.566 448.763Z" fill="white"/>
<path d="M354.148 448.87C363.617 426.231 374.196 404.182 383.993 381.706L398.381 381.804C401.419 389.355 405.061 396.776 408.424 404.197C415.082 419.01 422.003 433.705 429.182 448.273L414.702 448.269C412.607 443.792 410.538 439.302 408.494 434.801C405.567 434.592 402.624 434.507 399.692 434.378L373.998 434.314C371.464 439.069 369.409 444.025 367.296 448.976L354.148 448.87ZM390.824 394.158C385.566 403.332 381.998 413.995 377.952 423.781L392.625 423.865L404.129 423.966C401.973 419.612 391.739 395.042 390.824 394.158Z" fill="white"/>
<path d="M423.497 392.201L423.536 381.705L480.191 381.835L480.292 392.733L458.554 392.296L458.573 425.869L458.498 448.348L444.57 448.332C445.415 429.655 445.093 410.833 445.164 392.135L423.497 392.201Z" fill="white"/>
<path d="M489.343 448.391C489.307 426.219 489.425 404.047 489.696 381.876L538.811 381.995C538.847 385.602 538.793 389.214 538.781 392.822L503.397 392.732L503.428 409.263L534.583 409.28L534.587 419.974L503.092 419.795C502.179 425.318 502.876 431.884 502.892 437.509L539.993 437.63L539.909 448.62L489.343 448.391Z" fill="white"/>
<path d="M121.684 0.518576C133.646 -1.30541 147.942 1.85165 158.562 7.43459C170.481 13.7004 179.516 23.05 185.747 34.3369H228.29C228.261 22.4782 228.243 6.94797 228.336 1.11916C256.338 0.762162 284.437 0.710209 312.442 0.992209C355.015 1.42028 391.458 15.0071 421.553 45.7588C449.612 73.9688 464.983 112.382 464.13 152.161C463.744 191.904 447.633 229.876 419.32 257.77C394.528 282.408 361.858 297.542 327.031 300.522C314.17 301.669 301.098 301.257 288.199 301.267C268.304 301.33 248.408 301.276 228.514 301.105C228.529 292.888 228.524 274.318 228.519 262.337H187.722C187.458 262.929 187.186 263.518 186.904 264.102C179.443 279.661 166.628 291.178 150.364 296.827C133.947 302.584 115.902 301.473 100.316 293.745C85.4071 286.398 74.0263 273.43 68.6803 257.692C63.2813 242.018 63.9297 222.935 71.3727 208.015C79.1587 192.419 92.8692 180.595 109.439 175.184C125.767 169.879 143.543 171.381 158.749 179.349C172.295 186.353 182.328 197.618 188.214 211.337H228.442C228.454 202.116 228.475 184.974 228.459 177.478L228.439 115.331C228.452 107.921 228.493 91.4217 228.508 85.3369H190.309C187.806 91.1289 184.967 96.7588 181.237 101.877C170.901 116.169 155.258 125.711 137.821 128.36C120.497 130.862 102.896 126.277 88.9947 115.639C76.1978 105.952 67.0306 90.8871 64.9156 74.9131C62.6416 57.7391 66.3873 39.8027 77.0953 25.9727C88.3222 11.4729 103.563 2.88565 121.684 0.518576ZM291.963 58.4375L292.051 163.451C292.038 190.067 291.745 216.452 291.95 242.87C326.548 242.859 350.204 241.504 375.233 216.37L375.544 216.055C393.355 197.8 403.336 174.391 403.04 149.061L403.039 149.035V149.01C402.902 124.816 393.159 101.667 375.956 84.6563C370.754 79.6058 364.785 75.2741 358.297 71.459L356.992 70.7022C335.772 58.5728 316.82 58.3635 291.963 58.4375Z" fill="#FF5959"/>
</svg>
