<svg width="828" height="134" viewBox="0 0 828 134" fill="none" xmlns="http://www.w3.org/2000/svg">
<path fill-rule="evenodd" clip-rule="evenodd" d="M25.2661 0.230251C30.5307 -0.580807 36.8226 0.823158 41.4967 3.30576C46.7423 6.09201 50.7171 10.2508 53.4595 15.2697H72.1864C72.1736 9.99613 72.1649 3.08983 72.2057 0.497771C84.53 0.339015 96.8973 0.316013 109.223 0.441417C127.96 0.631778 144.001 6.67349 157.246 20.3487C169.595 32.8935 176.361 49.976 175.985 67.6654C175.815 85.3388 168.724 102.224 156.263 114.628C145.351 125.585 130.972 132.315 115.644 133.64C109.983 134.15 104.23 133.967 98.5527 133.972C89.7965 134 81.0403 133.975 72.2845 133.899C72.2912 130.245 72.2886 121.988 72.2864 116.66H54.3294C54.2131 116.923 54.0944 117.185 53.9704 117.444C50.6867 124.364 45.0466 129.485 37.8886 131.997C30.6631 134.557 22.721 134.063 15.8613 130.627C9.29946 127.359 4.29028 121.593 1.93737 114.594C-0.438816 107.624 -0.153058 99.1381 3.12275 92.5033C6.54956 85.5679 12.5836 80.3093 19.8764 77.9031C27.0628 75.544 34.8862 76.2123 41.5787 79.7556C47.5406 82.8706 51.956 87.8798 54.5468 93.9802H72.2525C72.2579 89.8799 72.2675 82.257 72.2602 78.9233L72.2512 51.2871C72.2569 47.9922 72.2751 40.6555 72.282 37.9493H55.4686C54.3668 40.5248 53.1182 43.0286 51.4766 45.3045C46.9275 51.66 40.0425 55.9032 32.3681 57.0812C24.7434 58.1938 16.9962 56.1551 10.8781 51.4244C5.2458 47.1167 1.21165 40.4169 0.280789 33.3134C-0.720024 25.6762 0.928778 17.7004 5.64161 11.5503C10.5829 5.10229 17.2906 1.28284 25.2661 0.230251ZM130.687 28.1592C119.28 21.5715 109.032 22.2186 96.4659 22.2155L96.5076 72.6842C96.501 85.7105 96.3432 98.7538 96.4986 111.778C113.653 111.808 126.405 112.189 139.52 98.8752L139.673 98.7185C148.158 89.9327 152.98 78.5745 152.838 66.2423C152.772 54.4744 148.079 43.2152 139.794 34.9444C137.074 32.2745 133.974 30.0576 130.687 28.1592Z" fill="#FF5959"/>
<path d="M198 105.875C198.142 79.8137 197.884 53.7405 198.274 27.6826C218.823 27.6067 248.34 23.9271 264.78 38.6359C272.346 45.4053 275.991 54.865 276.472 64.8445C277.029 76.3852 273.505 86.0085 265.711 94.5072C252.784 105.883 236.946 105.987 220.672 105.897C213.114 105.845 205.558 105.838 198 105.875ZM214.22 40.3991C214.188 57.9969 214.368 75.6285 213.84 93.2181C228.105 93.3267 241.23 94.8996 253.027 85.4772C258.339 79.8359 260.697 73.9201 260.447 66.0695C260.229 59.2289 258.015 52.5331 252.871 47.8236C242.813 38.6125 226.831 40.3407 214.22 40.3991Z" fill="black"/>
<path d="M278.19 105.744C291.105 80.1281 301.943 53.5412 314.686 27.8499L330.674 27.7798C342.128 53.909 354.743 79.7311 365.581 106.096C360.135 106.053 354.687 106.074 349.24 106.162L342.844 90.8094L328.262 90.6167L301.635 90.4591L294.978 105.528C289.39 105.709 283.781 105.68 278.19 105.744ZM321.764 43.4555C316.845 55.0837 311.32 66.4224 306.635 78.1535L322.817 78.1967L337.709 78.1302C334.786 71.8419 324.874 47.0147 321.764 43.4555Z" fill="black"/>
<path d="M355.75 40.598L355.836 27.9059C377.854 27.8521 399.871 27.9339 421.888 28.1522L421.871 40.6937L396.542 40.7346L396.528 81.7921L396.454 106.348L381.158 106.392L381.009 40.6365L355.75 40.598Z" fill="black"/>
<path d="M418.273 106.269C423.963 92.0437 430.823 78.2399 437.346 64.3824C442.968 52.2835 448.466 40.1262 453.839 27.9152L470.255 27.7529C473.651 38.1434 478.794 48.2443 483.321 58.1899C490.731 74.1949 497.908 90.3073 504.849 106.52L488.163 106.458C485.966 100.366 483.347 94.4352 480.326 88.7063L470.537 88.5591L442.135 88.5136C439.316 94.4246 436.67 100.43 433.977 106.401C428.742 106.406 423.507 106.361 418.273 106.269ZM461.098 43.3001C456.477 54.4741 451.765 65.6108 446.961 76.7078L461.239 76.8094L475.429 76.793C473.331 71.4133 464.249 46.0431 461.098 43.3001Z" fill="black"/>
<path d="M514.549 106.52L515.084 27.8624L528.406 27.8052C537.303 45.0795 548.177 61.6099 558.024 78.3587C568.392 61.8376 578.003 44.7793 588.036 28.0469L600.89 28.2337L600.548 106.757L585.722 106.78L585.869 77.1793C585.823 69.401 586.259 61.6286 587.172 53.904C578.898 68.4119 569.923 82.6968 561.137 96.9058L554.039 96.6279C545.36 82.8884 537.273 68.7506 529.106 54.7004C529.25 72.0027 529.263 89.305 529.146 106.607L514.549 106.52Z" fill="black"/>
<path d="M610.982 106.645C622.04 80.2084 634.393 54.4611 645.833 28.2151L662.635 28.3295C666.182 37.147 670.435 45.8128 674.362 54.4785C682.137 71.7762 690.219 88.936 698.602 105.948L681.693 105.943C679.247 100.715 676.831 95.4718 674.444 90.2159C671.026 89.9718 667.589 89.8726 664.166 89.722L634.162 89.6472C631.203 95.1998 628.803 100.987 626.336 106.768L610.982 106.645ZM653.81 42.7557C647.67 53.4685 643.504 65.92 638.779 77.3474L655.913 77.4456L669.347 77.5635C666.829 72.4792 654.879 43.7879 653.81 42.7557Z" fill="black"/>
<path d="M691.963 40.4704L692.009 28.2139L758.167 28.3657L758.285 41.0917L732.901 40.5813L732.923 79.7857L732.835 106.035L716.571 106.016C717.558 84.2067 717.182 62.2276 717.265 40.3933L691.963 40.4704Z" fill="black"/>
<path d="M768.854 106.086C768.812 80.1947 768.95 54.3036 769.266 28.4138L826.619 28.5528C826.661 32.7648 826.598 36.9826 826.584 41.1958L785.265 41.0908L785.302 60.3946L821.682 60.4144L821.687 72.9022L784.909 72.6931C783.843 79.1425 784.657 86.8098 784.676 93.3783L828 93.5197L827.902 106.353L768.854 106.086Z" fill="black"/>
</svg>
