<svg width="269" height="204" viewBox="0 0 269 204" fill="none" xmlns="http://www.w3.org/2000/svg">
<path fill-rule="evenodd" clip-rule="evenodd" d="M38.5879 1.33615C46.6074 0.113374 56.1916 2.23003 63.3115 5.97286C71.3021 10.1735 77.3568 16.4433 81.5342 24.01H110.061C110.041 16.0594 110.028 5.64732 110.09 1.73947C128.863 1.50012 147.702 1.46544 166.478 1.65451C195.02 1.9415 219.453 11.0501 239.63 31.6672C258.441 50.5801 268.747 76.3341 268.175 103.003C267.916 129.648 257.114 155.105 238.132 173.806C221.51 190.325 199.607 200.471 176.258 202.468C167.636 203.238 158.871 202.961 150.224 202.968C136.885 203.01 123.547 202.973 110.21 202.859C110.22 197.35 110.216 184.901 110.213 176.868H82.8594C82.6821 177.265 82.5013 177.66 82.3125 178.051C77.3104 188.483 68.7191 196.204 57.8154 199.991C46.809 203.851 34.711 203.106 24.2617 197.925C14.2662 192.999 6.63587 184.305 3.05174 173.754C-0.567852 163.246 -0.132564 150.452 4.85741 140.449C10.0774 129.993 19.2689 122.065 30.3779 118.438C41.3247 114.881 53.242 115.889 63.4365 121.231C72.5181 125.927 79.244 133.479 83.1904 142.676H110.161C110.169 136.494 110.184 125.002 110.173 119.976L110.159 78.3108C110.168 73.3432 110.196 62.2823 110.206 58.2024H84.5947C82.9162 62.0852 81.0144 65.8601 78.5137 69.2912C71.5841 78.8729 61.0964 85.2701 49.4062 87.0461C37.7917 88.7235 25.9906 85.6498 16.6709 78.5178C8.09139 72.0233 1.94627 61.9226 0.528305 51.2131C-0.99621 39.6992 1.51537 27.6746 8.69432 18.4026C16.2212 8.68137 26.439 2.92305 38.5879 1.33615ZM199.173 43.4426C181.797 33.5108 166.187 34.4863 147.045 34.4817L147.108 110.57C147.098 130.208 146.858 149.873 147.095 169.509C173.225 169.553 192.651 170.128 212.629 150.056L212.861 149.82C225.786 136.574 233.132 119.45 232.915 100.858C232.814 83.1161 225.666 66.1414 213.045 53.6721C208.902 49.6468 204.18 46.3047 199.173 43.4426Z" fill="#FF5959"/>
</svg>
