<svg width="540" height="450" viewBox="0 0 540 450" fill="none" xmlns="http://www.w3.org/2000/svg">
<path d="M0.486084 448.874C0.608084 426.556 0.387085 404.228 0.721085 381.913C18.3181 381.848 43.5951 378.697 57.6741 391.293C64.1531 397.09 67.2741 405.191 67.6861 413.737C68.1631 423.62 65.1451 431.861 58.4711 439.139C47.4011 448.881 33.8381 448.97 19.9011 448.893C13.4291 448.848 6.95808 448.842 0.486084 448.874ZM14.3761 392.803C14.3491 407.873 14.5031 422.972 14.0511 438.035C26.2671 438.128 37.5061 439.475 47.6091 431.406C52.1581 426.575 54.1771 421.509 53.9631 414.786C53.7761 408.928 51.8801 403.194 47.4751 399.161C38.8621 391.273 25.1761 392.753 14.3761 392.803Z" fill="black"/>
<path d="M69.158 448.761C80.218 426.825 89.499 404.057 100.412 382.056L114.103 381.996C123.912 404.372 134.715 426.485 143.996 449.063C139.332 449.026 134.667 449.044 130.002 449.119L124.525 435.972L112.038 435.807L89.235 435.672L83.535 448.576C78.749 448.731 73.946 448.707 69.158 448.761ZM106.473 395.42C102.261 405.378 97.529 415.088 93.517 425.134L107.375 425.171L120.128 425.114C117.625 419.729 109.136 398.468 106.473 395.42Z" fill="black"/>
<path d="M135.577 392.973L135.651 382.104C154.506 382.058 173.361 382.128 192.215 382.315L192.201 393.055L170.51 393.09L170.498 428.25L170.435 449.279L157.336 449.316L157.208 393.006L135.577 392.973Z" fill="black"/>
<path d="M189.12 449.211C193.992 437.029 199.867 425.208 205.453 413.341C210.267 402.98 214.976 392.569 219.577 382.112L233.635 381.973C236.543 390.871 240.947 399.521 244.824 408.038C251.17 421.744 257.316 435.542 263.26 449.426L248.971 449.373C247.089 444.156 244.846 439.077 242.259 434.171L233.876 434.045L209.554 434.006C207.14 439.068 204.874 444.211 202.568 449.324C198.085 449.328 193.602 449.29 189.12 449.211ZM225.793 395.287C221.836 404.856 217.801 414.393 213.687 423.896L225.914 423.983L238.066 423.969C236.269 419.362 228.492 397.636 225.793 395.287Z" fill="black"/>
<path d="M271.566 449.426L272.024 382.067L283.432 382.018C291.051 396.811 300.363 410.967 308.796 425.31C317.675 411.162 325.905 396.554 334.497 382.225L345.505 382.385L345.212 449.629L332.515 449.649L332.641 424.3C332.602 417.639 332.975 410.983 333.757 404.368C326.672 416.792 318.986 429.025 311.462 441.193L305.383 440.955C297.951 429.189 291.026 417.082 284.032 405.05C284.155 419.867 284.166 434.684 284.066 449.501L271.566 449.426Z" fill="black"/>
<path d="M354.148 449.533C363.617 426.894 374.196 404.845 383.993 382.369L398.381 382.467C401.419 390.018 405.061 397.439 408.424 404.86C415.082 419.673 422.003 434.368 429.182 448.936L414.702 448.932C412.607 444.455 410.538 439.965 408.494 435.464C405.567 435.255 402.624 435.17 399.692 435.041L373.998 434.977C371.464 439.732 369.409 444.688 367.296 449.639L354.148 449.533ZM390.824 394.821C385.566 403.995 381.998 414.658 377.952 424.444L392.625 424.528L404.129 424.629C401.973 420.275 391.739 395.705 390.824 394.821Z" fill="black"/>
<path d="M423.497 392.864L423.536 382.368L480.191 382.498L480.292 393.396L458.554 392.959L458.573 426.532L458.498 449.011L444.57 448.995C445.415 430.318 445.093 411.496 445.164 392.798L423.497 392.864Z" fill="black"/>
<path d="M489.343 449.054C489.307 426.882 489.425 404.71 489.696 382.539L538.811 382.658C538.847 386.265 538.793 389.877 538.781 393.485L503.397 393.395L503.428 409.926L534.583 409.943L534.587 420.637L503.092 420.458C502.179 425.981 502.876 432.547 502.892 438.172L539.993 438.293L539.909 449.283L489.343 449.054Z" fill="black"/>
<path d="M121.684 1.1814C133.646 -0.642593 147.942 2.51447 158.562 8.09741C170.481 14.3632 179.516 23.7128 185.747 34.9998H228.29C228.26 23.141 228.243 7.61079 228.335 1.78198C256.337 1.42498 284.437 1.37303 312.442 1.65503C355.015 2.0831 391.458 15.6699 421.553 46.4216C449.612 74.6316 464.983 113.045 464.13 152.824C463.744 192.567 447.633 230.538 419.32 258.432C394.528 283.071 361.858 298.205 327.031 301.184C314.17 302.332 301.098 301.919 288.199 301.929C268.304 301.992 248.408 301.938 228.514 301.767C228.529 293.551 228.524 274.981 228.519 263H187.722C187.458 263.591 187.186 264.18 186.904 264.764C179.443 280.324 166.628 291.841 150.364 297.49C133.947 303.247 115.902 302.136 100.316 294.408C85.407 287.061 74.0262 274.093 68.6802 258.355C63.2812 242.681 63.9296 223.597 71.3726 208.677C79.1586 193.082 92.8691 181.257 109.439 175.846C125.767 170.542 143.543 172.044 158.749 180.011C172.295 187.016 182.328 198.281 188.214 212H228.442C228.454 202.779 228.475 185.637 228.458 178.14L228.439 115.994C228.452 108.584 228.493 92.0845 228.508 85.9998H190.309C187.805 91.7917 184.967 97.4216 181.237 102.54C170.901 116.832 155.258 126.374 137.821 129.023C120.497 131.525 102.896 126.94 88.9946 116.302C76.1977 106.615 67.0305 91.5499 64.9155 75.5759C62.6415 58.4019 66.3872 40.4655 77.0952 26.6355C88.3221 12.1357 103.563 3.54847 121.684 1.1814ZM291.963 59.1003L292.051 164.114C292.038 190.73 291.745 217.115 291.95 243.533C326.548 243.522 350.204 242.167 375.233 217.033L375.543 216.718C393.355 198.463 403.335 175.054 403.04 149.723L403.039 149.698V149.673C402.901 125.479 393.159 102.33 375.956 85.3191C370.754 80.2686 364.785 75.9369 358.297 72.1218L356.992 71.365C335.771 59.2356 316.819 59.0263 291.963 59.1003Z" fill="#FF5959"/>
</svg>
